<svg width="16" height="16" viewBox="0 0 16 16" fill="currentColor" class="esti esti-co2" xmlns="http://www.w3.org/2000/svg">
  <path fill-rule="evenodd" clip-rule="evenodd" d="M3.54685 3.53669C3.44477 3.54283 3.34295 3.55307 3.24177 3.56753C2.48217 3.67604 1.7323 4.02212 1.139 4.67019C0.546208 5.3177 0.137343 6.23607 0.00304119 7.44479C-0.0274536 7.71924 0.170314 7.96645 0.444767 7.99694C0.719221 8.02744 0.96643 7.82967 0.996925 7.55522C1.11262 6.51393 1.45376 5.8073 1.87659 5.34544C2.29892 4.88413 2.83029 4.63646 3.38319 4.55748C4.53175 4.3934 5.66948 4.95704 6.05277 5.72361C6.17626 5.9706 6.4766 6.07071 6.72359 5.94722C6.97058 5.82372 7.07069 5.52339 6.9472 5.2764C6.51914 4.42029 5.61147 3.82773 4.60249 3.61584C5.54947 1.58553 7.2204 0.996087 8.64522 1.3014C10.1736 1.62892 11.5 2.99479 11.5 5C11.5 5.01726 11.5009 5.03431 11.5026 5.05112C11.5162 5.18554 11.5831 5.30421 11.6818 5.38573C11.7683 5.45711 11.8791 5.50001 12 5.50001C13.1162 5.50001 13.9483 5.94265 14.4014 6.59711C14.8517 7.24763 14.9852 8.19079 14.5357 9.31431C14.4332 9.5707 14.5579 9.86169 14.8143 9.96425C15.0707 10.0668 15.3617 9.94209 15.4642 9.6857C16.0148 8.30923 15.8982 7.00239 15.2236 6.0279C14.6307 5.17159 13.6518 4.63693 12.4791 4.52294C12.2811 2.28214 10.6982 0.718621 8.85475 0.323602C6.85859 -0.104147 4.63567 0.845933 3.54685 3.53669ZM1.99998 10.75C1.99998 10.3358 2.33577 10 2.74998 10H3.99998C4.27613 10 4.49998 9.77614 4.49998 9.5C4.49998 9.22386 4.27613 9 3.99998 9H2.74998C1.78348 9 0.999983 9.7835 0.999983 10.75V12.75C0.999983 13.7165 1.78348 14.5 2.74998 14.5H3.99998C4.27613 14.5 4.49998 14.2761 4.49998 14C4.49998 13.7239 4.27613 13.5 3.99998 13.5H2.74998C2.33577 13.5 1.99998 13.1642 1.99998 12.75V10.75ZM7.74998 9C6.78348 9 5.99998 9.7835 5.99998 10.75V12.75C5.99998 13.7165 6.78348 14.5 7.74998 14.5H8.24998C9.21648 14.5 9.99998 13.7165 9.99998 12.75V10.75C9.99998 9.7835 9.21648 9 8.24998 9H7.74998ZM6.99998 10.75C6.99998 10.3358 7.33577 10 7.74998 10H8.24998C8.6642 10 8.99998 10.3358 8.99998 10.75V12.75C8.99998 13.1642 8.6642 13.5 8.24998 13.5H7.74998C7.33577 13.5 6.99998 13.1642 6.99998 12.75V10.75ZM11.5 12C11.5 11.7239 11.7238 11.5 12 11.5H13.6189C14.3816 11.5 15 12.1184 15 12.8811C15 13.6364 14.3934 14.2515 13.6382 14.2621L13.2395 14.2677C12.8353 14.2734 12.5095 14.598 12.5002 15H14.5C14.7761 15 15 15.2239 15 15.5C15 15.7761 14.7761 16 14.5 16H12.125C11.7798 16 11.5 15.7202 11.5 15.375V15.0176C11.5 14.0607 12.2686 13.2812 13.2255 13.2678L13.6242 13.2622C13.8326 13.2593 14 13.0895 14 12.8811C14 12.6706 13.8293 12.5 13.6189 12.5H12C11.7238 12.5 11.5 12.2761 11.5 12Z"/>
</svg>