<svg width="16" height="16" viewBox="0 0 16 16" fill="currentColor" class="esti esti-floor" xmlns="http://www.w3.org/2000/svg">
  <path fill-rule="evenodd" clip-rule="evenodd" d="M1.5 0C0.671573 0 0 0.671573 0 1.5V13C0 13.8284 0.671573 14.5 1.5 14.5H2C2.27614 14.5 2.5 14.2761 2.5 14C2.5 13.7239 2.27614 13.5 2 13.5H1.5C1.22386 13.5 1 13.2761 1 13V1.5C1 1.22386 1.22386 1 1.5 1H10.5C10.7761 1 11 0.776142 11 0.5C11 0.223858 10.7761 0 10.5 0H1.5ZM9.35355 5.14645C9.15829 4.95118 8.84171 4.95118 8.64645 5.14645C8.45118 5.34171 8.45118 5.65829 8.64645 5.85355L12.6464 9.85355C12.8417 10.0488 13.1583 10.0488 13.3536 9.85355C13.5488 9.65829 13.5488 9.34171 13.3536 9.14645L9.35355 5.14645ZM7.35355 6.64645C7.15829 6.45118 6.84171 6.45118 6.64645 6.64645C6.45118 6.84171 6.45118 7.15829 6.64645 7.35355L12.6464 13.3536C12.8417 13.5488 13.1583 13.5488 13.3536 13.3536C13.5488 13.1583 13.5488 12.8417 13.3536 12.6464L7.35355 6.64645ZM5 2.5C4.17157 2.5 3.5 3.17157 3.5 4V14.5C3.5 15.3284 4.17157 16 5 16H14.5C15.3284 16 16 15.3284 16 14.5V4C16 3.17157 15.3284 2.5 14.5 2.5H5ZM4.5 4C4.5 3.72386 4.72386 3.5 5 3.5H14.5C14.7761 3.5 15 3.72386 15 4V14.5C15 14.7761 14.7761 15 14.5 15H5C4.72386 15 4.5 14.7761 4.5 14.5V4Z"/>
</svg>