<svg xmlns="http://www.w3.org/2000/svg" width="16" height="16" fill="currentColor" id="esti-heating-boiler" class="esti esti-heating-boiler" viewBox="0 0 16 16">
  <path fill-rule="evenodd" clip-rule="evenodd" d="M1.75 0C0.783502 0 0 0.783502 0 1.75V13.25C0 14.2165 0.783502 15 1.75 15H3.5V15.5C3.5 15.7761 3.72386 16 4 16C4.27614 16 4.5 15.7761 4.5 15.5V15H7.5V15.5C7.5 15.7761 7.72386 16 8 16C8.27614 16 8.5 15.7761 8.5 15.5V15H10.25C11.2165 15 12 14.2165 12 13.25V1.75C12 0.783502 11.2165 0 10.25 0H1.75ZM1 13.25V10.25H11V13.25C11 13.6642 10.6642 14 10.25 14H1.75C1.33579 14 1 13.6642 1 13.25ZM1 1.75V9.25H11V1.75C11 1.33579 10.6642 1 10.25 1H1.75C1.33579 1 1 1.33579 1 1.75ZM8.5 5.54452C8.5 6.85711 7.37822 7.92547 6 7.92547C4.62178 7.92547 3.5 6.85711 3.5 5.54452C3.5 4.14454 5.35221 2.36779 5.56368 2.16986C5.80615 1.94242 6.1975 1.94357 6.43935 2.17218C6.7833 2.49859 8.5 4.19547 8.5 5.54452ZM7.25547 5.54452C7.25547 5.03349 6.61497 4.13933 5.99818 3.46104C5.3826 4.13354 4.74453 5.02365 4.74453 5.54452C4.74453 6.20371 5.30785 6.7402 6 6.7402C6.69215 6.7402 7.25547 6.20371 7.25547 5.54452ZM4.75 12C4.75 12.4142 4.41421 12.75 4 12.75C3.58579 12.75 3.25 12.4142 3.25 12C3.25 11.5858 3.58579 11.25 4 11.25C4.41421 11.25 4.75 11.5858 4.75 12ZM8 12.75C8.41421 12.75 8.75 12.4142 8.75 12C8.75 11.5858 8.41421 11.25 8 11.25C7.58579 11.25 7.25 11.5858 7.25 12C7.25 12.4142 7.58579 12.75 8 12.75Z"/>
</svg>