<svg xmlns="http://www.w3.org/2000/svg" width="16" height="16" fill="currentColor" class="esti esti-house" viewBox="0 0 16 16">
  <path fill-rule="evenodd" clip-rule="evenodd" d="M13.0001 2.87091V1L14.0001 1V3.48757L13.0001 2.87091ZM15.0001 0.750001V4.10424L15.7625 4.57441C15.9976 4.71936 16.0706 5.0274 15.9257 5.26244C15.7807 5.49749 15.4727 5.57053 15.2376 5.42559L15.0001 5.27909V15.25C15.0001 15.6642 14.6643 16 14.2501 16H1.50008C1.22393 16 1.00008 15.7761 1.00008 15.5V5.2831L0.757323 5.42875C0.520533 5.57082 0.213403 5.49404 0.0713291 5.25725C-0.070745 5.02046 0.00603756 4.71333 0.242828 4.57125L7.6154 0.147712C7.85101 0.00634152 8.14508 0.0051333 8.38185 0.144565L12.0001 2.2753V0.75C12.0001 0.335786 12.3359 0 12.7501 0H14.2501C14.6643 0 15.0001 0.335787 15.0001 0.750001ZM2.00008 4.6831L8.00246 1.08166L12.242 3.57826L14.0001 4.66243V15L10.2501 15V9.75C10.2501 9.33579 9.91429 9 9.50008 9H6.50008C6.08586 9 5.75008 9.33579 5.75008 9.75V15H2.00008V4.6831ZM9.25008 10V15H6.75008V10H9.25008Z"/>
</svg>