<svg xmlns="http://www.w3.org/2000/svg" width="16" height="16" fill="currentColor" id="esti-house-roof" class="esti esti-house-roof" viewBox="0 0 16 16">
  <path fill-rule="evenodd" clip-rule="evenodd" d="M13 1V3.87091L14 4.48757V1H13ZM15 5.10424V0.75C15 0.335786 14.6642 0 14.25 0H12.75C12.3358 0 12 0.335786 12 0.75V3.2753L8.38179 1.14457C8.14502 1.00513 7.85096 1.00634 7.61534 1.14771L0.242767 5.57125C0.00597653 5.71333 -0.070806 6.02046 0.0712681 6.25725C0.213342 6.49404 0.520472 6.57082 0.757262 6.42875L8.0024 2.08166L12.2419 4.57826L14.2309 5.80478C14.2355 5.80778 14.2403 5.81071 14.2451 5.81355L15.2376 6.42559C15.4726 6.57053 15.7807 6.49749 15.9256 6.26244C16.0705 6.0274 15.9975 5.71936 15.7625 5.57441L15 5.10424Z"/>
</svg>