<svg xmlns="http://www.w3.org/2000/svg" width="16" height="16" fill="currentColor" class="esti esti-house-person" viewBox="0 0 16 16">
  <path fill-rule="evenodd" clip-rule="evenodd" d="M13.0001 2.87091V1L14.0001 1V3.48757L13.0001 2.87091ZM15.0001 0.750001V4.10424L15.7625 4.57441C15.9976 4.71936 16.0706 5.0274 15.9257 5.26244C15.7807 5.49749 15.4727 5.57053 15.2376 5.42559L15.0001 5.27909V15.5C15.0001 15.7761 14.7762 16 14.5001 16C14.2239 16 14.0001 15.7761 14.0001 15.5V4.66243L12.242 3.57826L8.00246 1.08166L2.00008 4.6831V15.5C2.00008 15.7761 1.77622 16 1.50008 16C1.22393 16 1.00008 15.7761 1.00008 15.5V5.2831L0.757323 5.42875C0.520533 5.57082 0.213403 5.49404 0.0713291 5.25725C-0.070745 5.02046 0.00603756 4.71333 0.242828 4.57125L7.6154 0.147712C7.85101 0.00634152 8.14508 0.0051333 8.38185 0.144565L12.0001 2.2753V0.75C12.0001 0.335786 12.3359 0 12.7501 0H14.2501C14.6643 0 15.0001 0.335787 15.0001 0.750001ZM8.00008 9.5C9.10464 9.5 10.0001 8.60457 10.0001 7.5C10.0001 6.39543 9.10464 5.5 8.00008 5.5C6.89551 5.5 6.00008 6.39543 6.00008 7.5C6.00008 8.60457 6.89551 9.5 8.00008 9.5ZM8.00008 10.5C9.65693 10.5 11.0001 9.15685 11.0001 7.5C11.0001 5.84315 9.65693 4.5 8.00008 4.5C6.34322 4.5 5.00008 5.84315 5.00008 7.5C5.00008 9.15685 6.34322 10.5 8.00008 10.5ZM4.03896 15C4.27864 13.6548 5.60329 12.5 7.37508 12.5H8.62507C10.3969 12.5 11.7215 13.6548 11.9612 15H4.03896ZM8.62507 11.5H7.37508C4.96301 11.5 3.00008 13.2666 3.00008 15.4375C3.00008 15.7484 3.27961 16 3.62507 16H12.3751C12.7205 16 13.0001 15.7484 13.0001 15.4375C13.0001 13.2666 11.0371 11.5 8.62507 11.5Z"/>
</svg>