<svg xmlns="http://www.w3.org/2000/svg" width="16" height="16" fill="currentColor" id="esti-house-spanner" class="esti esti-house-spanner" viewBox="0 0 16 16">
  <path fill-rule="evenodd" clip-rule="evenodd" d="M13.0001 2.87091V1L14.0001 1V3.48757L13.0001 2.87091ZM15.0001 0.750001V4.10424L15.7625 4.57441C15.9976 4.71936 16.0706 5.0274 15.9257 5.26244C15.7807 5.49749 15.4727 5.57053 15.2376 5.42559L15.0001 5.27909V15.5C15.0001 15.7761 14.7762 16 14.5001 16H10.2501C9.83586 16 9.50008 15.6642 9.50008 15.25V12.511C9.49953 12.4857 9.50093 12.4605 9.50418 12.4356C9.51359 12.3624 9.53885 12.2941 9.57641 12.2343C9.62799 12.1523 9.70276 12.0862 9.79154 12.0454C10.4169 11.7406 10.9861 11.2437 11.3127 10.6898C11.6461 10.1243 11.7935 9.48069 11.739 8.8396C11.6845 8.19841 11.43 7.58368 11.0035 7.07375C10.7221 6.73722 10.3843 6.45805 10.0001 6.24894V9.375C10.0001 9.72018 9.72025 10 9.37508 10H6.62508C6.2799 10 6.00008 9.72018 6.00008 9.375V6.24894C5.61582 6.45805 5.27807 6.73722 4.99662 7.07375C4.57014 7.58368 4.31568 8.19841 4.26116 8.8396C4.20665 9.48069 4.35401 10.1243 4.68744 10.6898C5.01404 11.2437 5.58328 11.7406 6.2086 12.0454C6.29732 12.0862 6.37205 12.1522 6.42363 12.2342C6.46125 12.294 6.48655 12.3623 6.49597 12.4356C6.49922 12.4605 6.50062 12.4857 6.50008 12.511V15.25C6.50008 15.6642 6.16429 16 5.75008 16H1.50008C1.22393 16 1.00008 15.7761 1.00008 15.5V5.2831L0.757323 5.42875C0.520533 5.57082 0.213403 5.49404 0.0713291 5.25725C-0.070745 5.02046 0.00603756 4.71333 0.242828 4.57125L7.6154 0.147712C7.85101 0.00634152 8.14508 0.0051333 8.38185 0.144565L12.0001 2.2753V0.75C12.0001 0.335786 12.3359 0 12.7501 0H14.2501C14.6643 0 15.0001 0.335787 15.0001 0.750001ZM6.34217 5.02545C5.49959 5.2854 4.7786 5.77568 4.22953 6.4322C3.67431 7.09607 3.33709 7.90417 3.26475 8.75488C3.19241 9.6057 3.38872 10.4561 3.82604 11.1977C4.21471 11.8569 4.8283 12.4188 5.50008 12.8015V15H2.00008V4.6831L8.00246 1.08166L12.242 3.57826L14.0001 4.66243V15H10.5001V12.8015C11.1719 12.4188 11.7854 11.8569 12.1741 11.1977C12.6114 10.4561 12.8077 9.6057 12.7354 8.75488C12.6631 7.90417 12.3258 7.09607 11.7706 6.4322C11.2215 5.77568 10.5006 5.2854 9.65798 5.02545C9.63093 5.01645 9.60285 5.0097 9.57396 5.00542C9.51604 4.9967 9.45832 4.99842 9.40302 5.00941C9.32907 5.02396 9.26097 5.05481 9.20261 5.09807C9.14419 5.14123 9.09479 5.19735 9.05926 5.26382C9.03259 5.31349 9.01407 5.36819 9.00549 5.42613C9.00118 5.45477 8.99942 5.48337 9.00008 5.51164V9H7.00008V5.51164C7.00073 5.48337 6.99897 5.45477 6.99466 5.42613C6.98608 5.36819 6.96756 5.3135 6.94089 5.26382C6.90536 5.19735 6.85596 5.14123 6.79754 5.09807C6.69325 5.02102 6.56024 4.98523 6.42619 5.00542C6.39731 5.0097 6.36922 5.01645 6.34217 5.02545Z"/>
</svg>