<svg xmlns="http://www.w3.org/2000/svg" width="16" height="16" fill="currentColor" id="esti-house-info" class="esti esti-house-info" viewBox="0 0 16 16">
  <path fill-rule="evenodd" clip-rule="evenodd" d="M13.0001 1V2.87091L14.0001 3.48757V1L13.0001 1ZM15.0001 4.10424V0.750001C15.0001 0.335787 14.6643 0 14.2501 0H12.7501C12.3359 0 12.0001 0.335786 12.0001 0.75V2.2753L8.38185 0.144565C8.14508 0.0051333 7.85101 0.00634152 7.6154 0.147712L0.242828 4.57125C0.00603756 4.71333 -0.070745 5.02046 0.0713291 5.25725C0.213403 5.49404 0.520533 5.57082 0.757323 5.42875L1.00008 5.2831V15.5C1.00008 15.7761 1.22393 16 1.50008 16H4.50008C4.77622 16 5.00008 15.7761 5.00008 15.5C5.00008 15.2239 4.77622 15 4.50008 15H2.00008V4.6831L8.00246 1.08166L12.242 3.57826L15.2376 5.42559C15.4727 5.57053 15.7807 5.49749 15.9257 5.26244C16.0706 5.0274 15.9976 4.71936 15.7625 4.57441L15.0001 4.10424ZM14.0001 11C14.0001 13.2091 12.2092 15 10.0001 15C7.79094 15 6.00008 13.2091 6.00008 11C6.00008 8.79086 7.79094 7 10.0001 7C12.2092 7 14.0001 8.79086 14.0001 11ZM15.0001 11C15.0001 13.7614 12.7615 16 10.0001 16C7.23865 16 5.00008 13.7614 5.00008 11C5.00008 8.23858 7.23865 6 10.0001 6C12.7615 6 15.0001 8.23858 15.0001 11ZM10.0001 10C10.2762 10 10.5001 10.2239 10.5001 10.5V13.5C10.5001 13.7761 10.2762 14 10.0001 14C9.72393 14 9.50008 13.7761 9.50008 13.5V10.5C9.50008 10.2239 9.72393 10 10.0001 10ZM10.0001 9.25C10.2762 9.25 10.5001 9.02614 10.5001 8.75C10.5001 8.47386 10.2762 8.25 10.0001 8.25C9.72393 8.25 9.50008 8.47386 9.50008 8.75C9.50008 9.02614 9.72393 9.25 10.0001 9.25Z"/>
</svg>