<svg xmlns="http://www.w3.org/2000/svg" width="16" height="16" fill="currentColor" id="esti-info-circle" class="esti esti-info-circle" viewBox="0 0 16 16">
  <path fill-rule="evenodd" clip-rule="evenodd" d="M8 15C11.866 15 15 11.866 15 8C15 4.13401 11.866 1 8 1C4.13401 1 1 4.13401 1 8C1 11.866 4.13401 15 8 15ZM8 16C12.4183 16 16 12.4183 16 8C16 3.58172 12.4183 0 8 0C3.58172 0 0 3.58172 0 8C0 12.4183 3.58172 16 8 16ZM7.5 7.48852L6.4357 7.91424C6.1793 8.0168 5.88832 7.89209 5.78576 7.6357C5.68321 7.3793 5.80791 7.08832 6.0643 6.98576L7.64288 6.35433C8.05342 6.19012 8.5 6.49246 8.5 6.93463V11.3L9.58784 10.927C9.84905 10.8375 10.1334 10.9766 10.223 11.2378C10.3125 11.4991 10.1734 11.7834 9.91216 11.873L8.3277 12.4162C7.92204 12.5553 7.5 12.2538 7.5 11.825V7.48852ZM7.92498 5.05C8.38061 5.05 8.74998 4.68064 8.74998 4.225C8.74998 3.76937 8.38061 3.4 7.92498 3.4C7.46934 3.4 7.09998 3.76937 7.09998 4.225C7.09998 4.68064 7.46934 5.05 7.92498 5.05Z"/>
</svg>