<svg xmlns="http://www.w3.org/2000/svg" width="16" height="16" fill="currentColor" class="esti esti-pc-display" viewBox="0 0 16 16">
  <path fill-rule="evenodd" clip-rule="evenodd" d="M1 1V12H15V1H1ZM0.5 0C0.223858 0 0 0.223858 0 0.5V12.5C0 12.7761 0.223858 13 0.5 13H5.5V14H5C4.72386 14 4.5 14.2239 4.5 14.5C4.5 14.7761 4.72386 15 5 15H11C11.2761 15 11.5 14.7761 11.5 14.5C11.5 14.2239 11.2761 14 11 14H10.5V13H15.5C15.7761 13 16 12.7761 16 12.5V0.5C16 0.223858 15.7761 0 15.5 0H0.5ZM9 10C9 9.72386 9.22386 9.5 9.5 9.5H13.5C13.7761 9.5 14 9.72386 14 10C14 10.2761 13.7761 10.5 13.5 10.5H9.5C9.22386 10.5 9 10.2761 9 10ZM2.5 9.5C2.22386 9.5 2 9.72386 2 10C2 10.2761 2.22386 10.5 2.5 10.5H7.5C7.77614 10.5 8 10.2761 8 10C8 9.72386 7.77614 9.5 7.5 9.5H2.5ZM9 7.5C9 7.22386 9.22386 7 9.5 7H13.5C13.7761 7 14 7.22386 14 7.5C14 7.77614 13.7761 8 13.5 8H9.5C9.22386 8 9 7.77614 9 7.5ZM10 2.5C10 2.22386 9.77614 2 9.5 2C9.22386 2 9 2.22386 9 2.5V4.875C9 5.22018 9.27982 5.5 9.625 5.5H13.5C13.7761 5.5 14 5.27614 14 5C14 4.72386 13.7761 4.5 13.5 4.5H10V2.5ZM13 2.5C13 2.77614 12.7761 3 12.5 3C12.2239 3 12 2.77614 12 2.5C12 2.22386 12.2239 2 12.5 2C12.7761 2 13 2.22386 13 2.5ZM7 5C7 6.10457 6.10457 7 5 7C3.89543 7 3 6.10457 3 5C3 3.89543 3.89543 3 5 3C6.10457 3 7 3.89543 7 5ZM8 5C8 6.65685 6.65685 8 5 8C3.34315 8 2 6.65685 2 5C2 3.34315 3.34315 2 5 2C6.65685 2 8 3.34315 8 5Z"/>
</svg>