<svg width="10" height="10" viewBox="0 0 10 10" fill="none" xmlns="http://www.w3.org/2000/svg">
<path d="M0.807518 0.807396C0.865575 0.749192 0.934545 0.703013 1.01048 0.671505C1.08641 0.639997 1.16781 0.623779 1.25002 0.623779C1.33223 0.623779 1.41363 0.639997 1.48956 0.671505C1.56549 0.703013 1.63446 0.749192 1.69252 0.807396L5.00002 4.11615L8.30752 0.807396C8.36563 0.749286 8.43461 0.703191 8.51054 0.671742C8.58646 0.640293 8.66784 0.624107 8.75002 0.624107C8.8322 0.624107 8.91357 0.640293 8.9895 0.671742C9.06542 0.703191 9.13441 0.749286 9.19252 0.807396C9.25063 0.865506 9.29672 0.934492 9.32817 1.01042C9.35962 1.08634 9.37581 1.16772 9.37581 1.2499C9.37581 1.33208 9.35962 1.41345 9.32817 1.48938C9.29672 1.5653 9.25063 1.63429 9.19252 1.6924L5.88377 4.9999L9.19252 8.3074C9.25063 8.36551 9.29672 8.43449 9.32817 8.51042C9.35962 8.58634 9.37581 8.66772 9.37581 8.7499C9.37581 8.83208 9.35962 8.91345 9.32817 8.98938C9.29672 9.0653 9.25063 9.13429 9.19252 9.1924C9.13441 9.25051 9.06542 9.2966 8.9895 9.32805C8.91357 9.3595 8.8322 9.37569 8.75002 9.37569C8.66784 9.37569 8.58646 9.3595 8.51054 9.32805C8.43461 9.2966 8.36563 9.25051 8.30752 9.1924L5.00002 5.88365L1.69252 9.1924C1.63441 9.25051 1.56542 9.2966 1.4895 9.32805C1.41357 9.3595 1.3322 9.37569 1.25002 9.37569C1.16784 9.37569 1.08646 9.3595 1.01054 9.32805C0.934615 9.2966 0.865628 9.25051 0.807518 9.1924C0.749408 9.13429 0.703313 9.0653 0.671864 8.98938C0.640415 8.91345 0.624229 8.83208 0.624229 8.7499C0.624229 8.66772 0.640415 8.58634 0.671864 8.51042C0.703313 8.43449 0.749408 8.36551 0.807518 8.3074L4.11627 4.9999L0.807518 1.6924C0.749314 1.63434 0.703135 1.56537 0.671627 1.48944C0.640119 1.41351 0.623901 1.33211 0.623901 1.2499C0.623901 1.16769 0.640119 1.08629 0.671627 1.01035C0.703135 0.934423 0.749314 0.865453 0.807518 0.807396Z" fill="#1B1F22"/>
</svg>
