<svg width="21" height="12" viewBox="0 0 21 12" fill="none" xmlns="http://www.w3.org/2000/svg">
<path fill-rule="evenodd" clip-rule="evenodd" d="M0.503447 1.14627C0.576019 1.07351 0.662231 1.01579 0.757145 0.976406C0.852059 0.937021 0.953811 0.916748 1.05657 0.916748C1.15933 0.916748 1.26109 0.937021 1.356 0.976406C1.45091 1.01579 1.53713 1.07351 1.6097 1.14627L10.4316 9.96971L19.2534 1.14627C19.3261 1.07363 19.4123 1.01601 19.5072 0.976701C19.6021 0.93739 19.7038 0.917157 19.8066 0.917157C19.9093 0.917157 20.011 0.93739 20.1059 0.976701C20.2008 1.01601 20.2871 1.07363 20.3597 1.14627C20.4323 1.21891 20.49 1.30514 20.5293 1.40004C20.5686 1.49495 20.5888 1.59667 20.5888 1.69939C20.5888 1.80212 20.5686 1.90384 20.5293 1.99874C20.49 2.09365 20.4323 2.17988 20.3597 2.25252L10.9847 11.6275C10.9121 11.7003 10.8259 11.758 10.731 11.7974C10.6361 11.8368 10.5343 11.857 10.4316 11.857C10.3288 11.857 10.2271 11.8368 10.1321 11.7974C10.0372 11.758 9.95102 11.7003 9.87845 11.6275L0.503447 2.25252C0.430692 2.17995 0.372969 2.09374 0.333584 1.99882C0.294199 1.90391 0.273926 1.80216 0.273926 1.69939C0.273926 1.59663 0.294199 1.49488 0.333584 1.39997C0.372969 1.30505 0.430692 1.21884 0.503447 1.14627Z" fill="#1B1F22"/>
</svg>
