<svg width="77" height="152" viewBox="0 0 77 152" fill="none" xmlns="http://www.w3.org/2000/svg">
<path fill-rule="evenodd" clip-rule="evenodd" d="M8.34024 5.59674C8.58603 5.59674 8.66779 5.48755 8.66779 5.24143V4.80452C8.66779 4.25942 8.58603 3.8491 8.39524 3.54896C8.14928 3.19381 7.73996 3.05804 7.13869 3.05804H6.89356C6.40164 3.05804 5.99215 3.16722 5.74619 3.43977C5.47364 3.73991 5.33686 4.20441 5.33686 4.91387V5.59674H8.34024ZM8.17687 10.3478C9.0497 10.3478 10.3879 10.156 11.0699 9.99244C11.2067 9.96486 11.3984 9.90985 11.5884 9.90985C11.8344 9.90985 12.0255 10.1016 12.0805 10.3743L12.2989 11.7403C12.353 12.0126 12.4082 12.2854 12.4082 12.4771C12.4082 12.8315 12.2714 13.0234 11.6978 13.2132C10.6064 13.5961 8.91375 13.8685 7.57543 13.8685H7.05692C4.89995 13.8685 3.2349 13.4051 2.3069 12.4771C1.21471 11.3849 0.941162 9.99244 0.941162 7.78047V6.25202C0.941162 3.52154 1.65162 2.04744 2.57962 1.22863C3.48103 0.436402 4.89995 0.000488281 6.86597 0.000488281H7.24787C9.21389 0.000488281 10.634 0.545589 11.3709 1.3654C12.3264 2.43017 12.6808 3.9041 12.6808 6.25202V7.67211C12.6808 8.24496 12.4358 8.43575 11.8895 8.43575H5.33686V8.65412C5.33686 9.93727 5.96473 10.3478 7.87557 10.3478H8.17687Z" fill="#1F201F"/>
<path fill-rule="evenodd" clip-rule="evenodd" d="M21.4347 0C23.0454 0 24.192 0.381903 24.9013 1.11978C25.6385 1.88342 25.912 2.89418 25.912 4.72243V12.832C25.912 13.3505 25.7211 13.6232 24.9832 13.6232H22.4717C21.7349 13.6232 21.5439 13.3505 21.5439 12.832V5.10533C21.5439 4.47747 21.4621 4.09473 21.2438 3.8496C21.0252 3.60364 20.5883 3.49429 20.0422 3.49429H19.8779C19.3328 3.49429 18.8958 3.60364 18.6773 3.8496C18.4589 4.09473 18.3773 4.44988 18.3773 5.10533V12.832C18.3773 13.3505 18.1854 13.6232 17.4483 13.6232H14.9369C14.2 13.6232 14.0081 13.3505 14.0081 12.832V1.01076C14.0081 0.463501 14.2266 0.24596 14.9369 0.24596H16.2202C16.8481 0.24596 17.0664 0.354315 17.2298 0.873989L17.3943 1.3925H17.4759C18.3497 0.463501 19.6053 0 21.2162 0H21.4347Z" fill="#1F201F"/>
<path fill-rule="evenodd" clip-rule="evenodd" d="M34.6426 5.59674C34.8885 5.59674 34.9703 5.48755 34.9703 5.24143V4.80452C34.9703 4.25942 34.8885 3.8491 34.6966 3.54896C34.4518 3.19381 34.0413 3.05804 33.442 3.05804H33.196C32.704 3.05804 32.2946 3.16722 32.0487 3.43977C31.776 3.73991 31.6394 4.20441 31.6394 4.91387V5.59674H34.6426ZM34.4792 10.3478C35.352 10.3478 36.6903 10.156 37.3724 9.99244C37.509 9.96486 37.6999 9.90985 37.8919 9.90985C38.1369 9.90985 38.3278 10.1016 38.3828 10.3743L38.6012 11.7403C38.6564 12.0126 38.7107 12.2854 38.7107 12.4771C38.7107 12.8315 38.5738 13.0234 38.0001 13.2132C36.9089 13.5961 35.2162 13.8685 33.8779 13.8685H33.3592C31.2023 13.8685 29.5372 13.4051 28.6094 12.4771C27.517 11.3849 27.2437 9.99244 27.2437 7.78047V6.25202C27.2437 3.52154 27.9539 2.04744 28.8819 1.22863C29.7834 0.436402 31.2023 0.000488281 33.1685 0.000488281H33.5502C35.5164 0.000488281 36.9365 0.545589 37.6733 1.3654C38.6288 2.43017 38.9831 3.9041 38.9831 6.25202V7.67211C38.9831 8.24496 38.7381 8.43575 38.1919 8.43575H31.6394V8.65412C31.6394 9.93727 32.2671 10.3478 34.1791 10.3478H34.4792Z" fill="#1F201F"/>
<path fill-rule="evenodd" clip-rule="evenodd" d="M43.8271 1.71978C44.4823 0.655173 45.3827 0.24585 46.8844 0.24585H47.9768C48.5505 0.24585 48.7689 0.382623 48.7689 1.01032V3.00309C48.7689 3.60337 48.5771 3.76756 48.0318 3.76756H47.2122C46.175 3.76756 45.5197 3.95868 45.1378 4.34125C44.7825 4.69556 44.6735 5.32359 44.6735 6.22467V12.8317C44.6735 13.3502 44.4823 13.6227 43.7445 13.6227H41.2332C40.4961 13.6227 40.3052 13.3502 40.3052 12.8317V1.01032C40.3052 0.464222 40.5235 0.24585 41.2332 0.24585H42.5439C43.1718 0.24585 43.3901 0.382623 43.5269 0.873546L43.7445 1.71978H43.8271Z" fill="#1F201F"/>
<path fill-rule="evenodd" clip-rule="evenodd" d="M55.8755 8.95489C56.5032 8.95489 56.9411 8.7907 57.1586 8.57315C57.4862 8.24543 57.6231 7.80852 57.6231 6.71616V5.65155C57.6231 4.55919 57.4862 4.12228 57.1586 3.79455C56.9411 3.57618 56.5032 3.41282 55.8755 3.41282H55.6845C55.0567 3.41282 54.6198 3.57618 54.4014 3.79455C54.0747 4.12228 53.9379 4.55919 53.9379 5.65155V6.71616C53.9379 7.80852 54.0747 8.24543 54.4014 8.57315C54.6198 8.7907 55.0567 8.95489 55.6845 8.95489H55.8755ZM69.963 18.5099C69.7445 18.9468 69.5261 19.0836 69.1984 19.0836C68.9808 19.0836 68.7073 19.002 68.4071 18.8652L67.0146 18.264C66.5227 18.0464 66.3054 17.8547 66.3054 17.5819C66.3054 17.4727 66.3319 17.3361 66.4411 17.1176C67.0146 15.9712 67.7794 14.4971 68.0244 13.8417C67.2874 13.5691 66.7687 13.1322 66.2502 11.9847C65.4039 10.1563 64.3117 6.22424 63.6021 3.16686H62.7283C62.3466 3.16686 62.0188 3.22186 61.7175 3.33005C61.8546 3.90374 61.9362 4.47759 61.9362 5.26865V7.09806C61.9362 9.09166 61.4727 10.3198 60.3262 11.0843C61.7175 11.8215 62.6191 13.077 62.6191 14.4971V14.6879C62.6191 17.2002 60.7897 18.7285 56.2032 18.7285H55.6845C53.9379 18.7285 51.7532 18.2916 50.3332 17.7455C49.8147 17.5543 49.6514 17.2266 49.7881 16.7081L50.2792 14.9616C50.4158 14.442 50.661 14.2234 51.2622 14.4152C52.6812 14.8799 54.483 15.2064 55.5478 15.2064H55.9305C57.6231 15.2064 58.305 14.6879 58.305 13.8141V13.7325C58.305 13.1864 58.06 12.7493 57.4862 12.3124C57.1586 12.34 56.6401 12.3676 56.149 12.3676H55.412C51.6166 12.3676 49.6238 10.7567 49.6238 7.09806V5.26865C49.6238 1.61116 51.343 0.00012207 55.6028 0.00012207H55.9847C57.7323 0.00012207 59.0421 0.218661 59.9986 0.764758C60.6805 0.437033 61.5277 0.246248 62.5373 0.246248H66.4685C67.069 0.246248 67.3149 0.354437 67.4241 0.900535C67.9702 3.84973 68.789 7.45337 69.5537 10.0473H69.6903C70.5909 7.56256 71.4371 3.33005 71.8197 0.982134C71.9016 0.409446 72.1476 0.246248 72.6927 0.246248H75.2049C75.8328 0.246248 76.0236 0.463624 75.942 1.0649C75.2325 5.95169 73.0754 12.7229 69.963 18.5099Z" fill="#1F201F"/>
<path fill-rule="evenodd" clip-rule="evenodd" d="M5.3188 35.9304C4.03565 35.9304 2.45237 35.6568 1.33259 35.2477C1.08746 35.1657 0.950684 35.0841 0.950684 34.8658C0.950684 34.7012 1.0047 34.4829 1.11405 34.047L1.25065 33.555C1.33259 33.2547 1.44177 33.1731 1.60597 33.1731C1.82451 33.1731 2.01529 33.3099 2.58798 33.4734C3.3802 33.7192 4.36338 33.8552 5.37298 33.8552C7.12062 33.8552 7.8575 33.2547 7.8575 31.9718V31.8358C7.8575 30.5793 7.25739 30.1974 5.91907 29.9238L4.63593 29.6513C1.8511 29.0502 1.16906 28.2313 1.16906 25.966V25.7742C1.16906 23.2354 2.64315 22.0614 5.75571 22.0614C7.12062 22.0614 8.322 22.2522 9.22241 22.5259C9.49613 22.6075 9.55014 22.7167 9.55014 22.8802C9.55014 23.0168 9.46854 23.2895 9.38694 23.6723L9.25 24.1908C9.1684 24.4909 9.11323 24.5737 8.92244 24.5737C8.7855 24.5737 8.56713 24.5185 8.37618 24.4635C7.7759 24.3001 6.73888 24.1632 5.91907 24.1632C4.06307 24.1632 3.51698 24.6277 3.51698 25.7742V25.911C3.51698 26.8664 3.98048 27.2483 5.56476 27.6036L6.82032 27.877C9.25 28.3957 10.2054 29.3501 10.2054 31.7266V31.9442C10.2054 34.538 8.54054 35.9304 5.3188 35.9304Z" fill="#1F201F"/>
<path fill-rule="evenodd" clip-rule="evenodd" d="M16.421 35.9304H15.5746C12.7622 35.9304 11.5342 34.4555 11.5342 31.9992V31.5623C11.5342 30.1148 11.9711 28.9958 12.8447 28.3405C13.636 27.7128 14.7825 27.4667 17.0487 27.4667H17.7041C18.2502 27.4667 18.8779 27.4941 19.37 27.5483V26.4019C19.37 24.6277 18.5228 24.1632 16.6668 24.1632C15.7931 24.1632 14.7558 24.3001 13.6911 24.5737C13.3634 24.6553 13.2267 24.6819 13.1175 24.6819C12.9267 24.6819 12.8172 24.5737 12.7622 24.3001L12.653 23.7815C12.5714 23.3721 12.5438 23.1812 12.5438 23.072C12.5438 22.8802 12.653 22.7443 12.9267 22.6627C13.9363 22.334 15.493 22.0614 16.8853 22.0614C20.352 22.0614 21.8813 23.2354 21.8813 26.7022V35.3027C21.8813 35.5752 21.7721 35.6844 21.4445 35.6844H20.3796C20.052 35.6844 19.9151 35.5752 19.8611 35.3027L19.7519 34.5105H19.6967C19.1782 35.466 18.1134 35.9304 16.421 35.9304ZM16.6935 29.5147C14.7825 29.5147 14.0729 29.979 14.0729 31.5899V31.9718C14.0729 33.3365 14.5916 33.8828 15.9839 33.8828H16.8303C18.4962 33.8828 19.37 33.2823 19.37 31.644V29.5963C18.9331 29.5422 18.387 29.5147 17.8949 29.5147H16.6935Z" fill="#1F201F"/>
<path fill-rule="evenodd" clip-rule="evenodd" d="M29.1801 35.6845H27.706C27.0781 35.6845 26.8046 35.4937 26.5318 34.8107C25.1673 31.3982 23.8564 27.1392 22.9009 23.4264C22.8458 23.208 22.7366 22.8261 22.7366 22.6076C22.7366 22.3892 22.8458 22.3076 23.1459 22.3076H24.6484C25.0027 22.3076 25.1673 22.4158 25.2489 22.771C26.1227 26.2652 27.1323 29.7055 28.3612 33.2826H28.5524C29.7803 29.7055 30.7908 26.2112 31.6372 22.771C31.7188 22.4158 31.8833 22.3076 32.2374 22.3076H33.7391C34.0393 22.3076 34.1484 22.3892 34.1484 22.6076C34.1484 22.8261 34.0393 23.208 33.9851 23.4264C33.0297 27.1392 31.7188 31.3982 30.354 34.8107C30.0815 35.4937 29.8078 35.6845 29.1801 35.6845Z" fill="#1F201F"/>
<path fill-rule="evenodd" clip-rule="evenodd" d="M39.4103 35.6845H38.6179C36.4611 35.6845 35.4789 34.9199 35.4789 32.5455V22.7985C35.4789 22.4158 35.6423 22.3076 36.0252 22.3076H37.4441C37.8544 22.3076 37.9902 22.4158 37.9902 22.7985V32.5455C37.9902 33.3642 38.2913 33.6103 39.0284 33.6103H39.4643C39.8196 33.6103 39.9012 33.6919 39.9012 34.0195V35.1936C39.9012 35.5489 39.8196 35.6845 39.4103 35.6845ZM36.8162 20.5598H36.6805C35.8065 20.5598 35.0962 20.0953 35.0962 18.9765V18.7856C35.0962 17.6658 35.8065 17.2013 36.6805 17.2013H36.8162C37.7175 17.2013 38.3719 17.6658 38.3719 18.7856V18.9765C38.3719 20.0953 37.7175 20.5598 36.8162 20.5598Z" fill="#1F201F"/>
<path fill-rule="evenodd" clip-rule="evenodd" d="M51.3832 35.6845H49.9633C49.5804 35.6845 49.4172 35.5754 49.4172 35.1936V27.3301C49.4172 25.0373 48.625 24.1095 46.5506 24.1095C44.7489 24.1095 43.7393 24.7913 43.7393 26.9483V35.1936C43.7393 35.5754 43.6016 35.6845 43.1921 35.6845H41.7722C41.3902 35.6845 41.2271 35.5754 41.2271 35.1936V22.717C41.2271 22.3892 41.3638 22.3077 41.664 22.3077H42.6194C42.9459 22.3077 43.0829 22.3892 43.1381 22.717L43.2747 23.5908H43.3288C44.0935 22.662 45.349 22.0615 47.2049 22.0615C50.3186 22.0615 51.9295 23.508 51.9295 27.4394V35.1936C51.9295 35.5754 51.7927 35.6845 51.3832 35.6845Z" fill="#1F201F"/>
<path fill-rule="evenodd" clip-rule="evenodd" d="M59.1274 40.7903C57.2164 40.7903 55.142 40.381 53.7497 39.8073C53.4484 39.6706 53.3392 39.5612 53.3392 39.3704C53.3392 39.2612 53.3934 39.0969 53.476 38.7967L53.7497 38.0055C53.8037 37.8137 53.9405 37.7595 54.0221 37.7595C54.1314 37.7595 54.2406 37.8137 54.404 37.8687C55.6607 38.3598 57.4072 38.7426 58.9354 38.7426C60.875 38.7426 62.048 38.1147 62.048 36.3396V36.1211C62.048 34.9205 61.5027 33.9651 60.3555 33.473C59.892 33.5558 59.3458 33.6098 58.6629 33.6098C54.7869 33.6098 53.2566 31.862 53.2566 28.1219V27.6307C53.2566 23.5363 55.0317 22.0612 58.6629 22.0612C60.192 22.0612 61.5027 22.2795 62.4859 22.935C62.9494 22.5257 63.4955 22.3071 64.3417 22.3071H65.2983C65.6526 22.3071 65.7617 22.3887 65.7617 22.744V23.8362C65.7617 24.1639 65.7067 24.2731 65.3248 24.2731H64.5601C64.206 24.2731 63.8497 24.3273 63.6047 24.4367C63.9324 25.2827 64.0692 26.2661 64.0692 27.6307V28.1219C64.0692 30.771 63.3587 31.9991 62.3215 32.5452C63.8497 33.3637 64.5877 34.7562 64.5877 36.313V36.613C64.5877 39.3704 62.731 40.7903 59.1274 40.7903ZM58.6629 24.0548C56.4242 24.0548 55.8239 25.0919 55.8239 27.5216V28.1219C55.8239 30.4972 56.3966 31.6448 58.6629 31.6448C60.9566 31.6448 61.5027 30.4972 61.5027 28.0952V27.5216C61.5027 25.0919 60.82 24.0548 58.6629 24.0548Z" fill="#1F201F"/>
<path fill-rule="evenodd" clip-rule="evenodd" d="M8.13317 57.7526H6.85002C5.42994 57.7526 4.42034 57.3983 3.79264 56.6604C3.19237 55.9508 2.89123 54.9138 2.89123 53.5213V45.9314H1.22618C1.03424 45.9314 0.952637 45.8762 0.952637 45.6311V45.085C0.952637 44.8391 1.03424 44.7575 1.22618 44.7299L2.89123 44.3757V41.2906C2.89123 41.0988 3.02801 40.962 3.21896 40.962H4.36533C4.55711 40.962 4.66547 41.0988 4.66547 41.2906V44.3757H7.86062C8.05157 44.3757 8.13317 44.4573 8.13317 44.6481V45.6589C8.13317 45.8222 8.05157 45.9314 7.86062 45.9314H4.66547V53.3029C4.66547 54.2859 4.74806 55.0494 5.15755 55.5415C5.5127 56.006 6.14056 56.2235 7.15016 56.2235H8.13317C8.29753 56.2235 8.4609 56.2235 8.4609 56.5245V57.4525C8.4609 57.6434 8.37913 57.7526 8.13317 57.7526Z" fill="#1F201F"/>
<path fill-rule="evenodd" clip-rule="evenodd" d="M11.1017 57.7526H10.2278C9.90012 57.7526 9.79077 57.6434 9.79077 57.3983V44.6757C9.79077 44.4838 9.90012 44.3757 10.1185 44.3757H10.9107C11.1567 44.3757 11.2109 44.4838 11.2383 44.6757L11.3476 46.0948H11.4018C11.8939 45.1944 12.8759 44.3757 14.5694 44.3757H15.279C15.5514 44.3757 15.634 44.4573 15.634 44.7033V45.6311C15.634 45.8497 15.5248 45.9314 15.279 45.9314H14.5418C13.1495 45.9314 12.494 46.3408 12.0571 47.0512C11.7018 47.6239 11.5662 48.3609 11.5662 49.2072V57.3983C11.5662 57.6158 11.4294 57.7526 11.1017 57.7526Z" fill="#1F201F"/>
<path fill-rule="evenodd" clip-rule="evenodd" d="M21.5766 57.998C20.1025 57.998 18.9828 57.6703 18.1915 57.016C17.3451 56.3064 16.9624 55.2682 16.9624 53.9033V44.8118C16.9624 44.566 17.1268 44.3759 17.3451 44.3759H18.3547C18.6284 44.3759 18.7376 44.566 18.7376 44.7578V53.6849C18.7376 54.7773 18.9284 55.3498 19.4473 55.8143C19.9934 56.3064 20.7302 56.4688 22.0136 56.4688C23.952 56.4688 25.0433 55.7327 25.0433 53.7941V44.7302C25.0433 44.5118 25.1803 44.3759 25.3711 44.3759H26.5174C26.737 44.3759 26.8186 44.5118 26.8186 44.7302V57.4529C26.8186 57.6437 26.737 57.7529 26.545 57.7529H25.7264C25.5078 57.7529 25.4262 57.6703 25.3987 57.4529L25.2619 56.4423H25.2077C24.4982 57.507 23.3243 57.998 21.5766 57.998Z" fill="#1F201F"/>
<path fill-rule="evenodd" clip-rule="evenodd" d="M32.0817 57.9981C30.6892 57.9981 29.2151 57.699 28.3689 57.3437C28.0953 57.2345 27.986 57.1253 28.0413 56.8793L28.2597 56.0881C28.3187 55.8716 28.42 55.7682 28.5736 55.7682C28.6336 55.7682 28.7014 55.784 28.7782 55.8144C29.8429 56.2239 30.9353 56.4688 32.0817 56.4688C33.3924 56.4688 33.9651 56.2789 34.402 55.9237C34.8389 55.5684 35.0849 54.9949 35.0849 54.1761V54.0127C35.0849 53.0573 34.9205 52.5386 34.348 52.1835C33.9375 51.9374 33.3372 51.8006 32.436 51.6098L31.6724 51.4739C30.7708 51.3105 30.0615 51.091 29.543 50.791C28.5322 50.2173 28.1505 49.2351 28.1505 47.952V47.6784C28.1505 45.2487 29.652 44.1301 32.5186 44.1301C33.6924 44.1301 34.7022 44.2667 35.576 44.5119C35.9037 44.5936 36.0403 44.7578 35.9853 45.003L35.8219 45.7132C35.7591 45.9664 35.6468 46.105 35.4234 46.105C35.3564 46.105 35.2808 46.0932 35.1942 46.0676C34.402 45.85 33.3648 45.6592 32.491 45.6592C31.317 45.6592 30.6892 45.8766 30.334 46.2043C30.0339 46.478 29.7878 46.9966 29.7878 47.6243V47.8154C29.7878 48.3891 29.897 48.825 30.2247 49.1535C30.58 49.5077 31.0711 49.7264 32.3542 49.9722L33.0647 50.1089C34.402 50.3817 35.4942 50.736 36.0403 51.4188C36.4498 51.9649 36.7223 52.7572 36.7223 53.8218V54.0945C36.7223 55.0499 36.4498 56.0329 35.9587 56.6342C35.2208 57.5622 33.9375 57.9981 32.0817 57.9981Z" fill="#1F201F"/>
<path fill-rule="evenodd" clip-rule="evenodd" d="M44.2669 57.7526H42.9836C41.5645 57.7526 40.554 57.3983 39.9262 56.6604C39.3249 55.9508 39.0248 54.9138 39.0248 53.5213V45.9314H37.3597C37.1689 45.9314 37.0862 45.8762 37.0862 45.6311V45.085C37.0862 44.8391 37.1689 44.7575 37.3597 44.7299L39.0248 44.3757V41.2906C39.0248 41.0988 39.1615 40.962 39.3535 40.962H40.4989C40.6898 40.962 40.8 41.0988 40.8 41.2906V44.3757H43.9933C44.1851 44.3757 44.2669 44.4573 44.2669 44.6481V45.6589C44.2669 45.8222 44.1851 45.9314 43.9933 45.9314H40.8V53.3029C40.8 54.2859 40.8818 55.0494 41.2911 55.5415C41.6462 56.006 42.2741 56.2235 43.2837 56.2235H44.2669C44.4311 56.2235 44.5944 56.2235 44.5944 56.5245V57.4525C44.5944 57.6434 44.5127 57.7526 44.2669 57.7526Z" fill="#1F201F"/>
<rect x="0.941162" y="94" width="58" height="58" fill="black"/>
<ellipse cx="9.78621" cy="117.635" rx="0.899" ry="0.898999" fill="white"/>
<circle cx="21.5601" cy="117.693" r="0.899" fill="white"/>
<ellipse cx="19.5882" cy="119.607" rx="0.899" ry="0.898999" fill="white"/>
<ellipse cx="17.6163" cy="121.521" rx="0.899" ry="0.899" fill="white"/>
<circle cx="15.7022" cy="123.435" r="0.899" fill="white"/>
<ellipse cx="13.7882" cy="121.521" rx="0.899" ry="0.899" fill="white"/>
<ellipse cx="11.8162" cy="119.607" rx="0.899" ry="0.898999" fill="white"/>
<ellipse cx="9.78621" cy="122.159" rx="0.899" ry="0.898999" fill="white"/>
<ellipse cx="21.5601" cy="122.159" rx="0.899" ry="0.898999" fill="white"/>
<ellipse cx="9.78621" cy="126.683" rx="0.899" ry="0.899001" fill="white"/>
<ellipse cx="21.5601" cy="126.683" rx="0.899" ry="0.899001" fill="white"/>
<ellipse cx="9.78621" cy="119.897" rx="0.899" ry="0.899" fill="white"/>
<circle cx="21.5601" cy="119.955" r="0.899" fill="white"/>
<ellipse cx="9.78621" cy="124.421" rx="0.899" ry="0.899" fill="white"/>
<circle cx="21.5601" cy="124.421" r="0.899" fill="white"/>
<ellipse cx="9.78621" cy="128.945" rx="0.899" ry="0.898998" fill="white"/>
<ellipse cx="21.5601" cy="128.945" rx="0.899" ry="0.898998" fill="white"/>
<ellipse cx="36.8143" cy="126.045" rx="0.898998" ry="0.899" fill="white"/>
<circle cx="35.8863" cy="128.191" r="0.899" fill="white"/>
<ellipse cx="33.6241" cy="128.945" rx="0.899" ry="0.898998" fill="white"/>
<ellipse cx="31.1883" cy="128.945" rx="0.898999" ry="0.898998" fill="white"/>
<circle cx="28.8682" cy="128.597" r="0.899" fill="white"/>
<ellipse cx="27.3602" cy="126.741" rx="0.898999" ry="0.899" fill="white"/>
<circle cx="27.3023" cy="124.363" r="0.899" fill="white"/>
<circle cx="27.3023" cy="121.927" r="0.899" fill="white"/>
<circle cx="27.4183" cy="119.491" r="0.899" fill="white"/>
<ellipse cx="28.8682" cy="117.635" rx="0.899" ry="0.898999" fill="white"/>
<circle cx="31.2462" cy="117.287" r="0.899" fill="white"/>
<circle cx="33.6822" cy="117.287" r="0.899" fill="white"/>
<circle cx="35.8863" cy="118.099" r="0.899" fill="white"/>
<circle cx="36.8721" cy="120.245" r="0.899" fill="white"/>
<circle cx="50.1541" cy="118.099" r="0.899" fill="white"/>
<circle cx="47.9503" cy="117.345" r="0.899" fill="white"/>
<circle cx="45.5142" cy="117.345" r="0.899" fill="white"/>
<circle cx="43.1942" cy="117.577" r="0.899" fill="white"/>
<circle cx="41.6861" cy="119.375" r="0.899" fill="white"/>
<circle cx="41.9762" cy="121.695" r="0.899" fill="white"/>
<circle cx="43.8902" cy="123.029" r="0.899" fill="white"/>
<circle cx="46.2681" cy="123.145" r="0.899" fill="white"/>
<circle cx="48.7042" cy="123.145" r="0.899" fill="white"/>
<circle cx="50.6182" cy="124.479" r="0.899" fill="white"/>
<ellipse cx="50.9661" cy="126.799" rx="0.899" ry="0.898999" fill="white"/>
<circle cx="49.4583" cy="128.597" r="0.899" fill="white"/>
<ellipse cx="47.0802" cy="128.945" rx="0.899" ry="0.898998" fill="white"/>
<ellipse cx="44.6441" cy="128.945" rx="0.899" ry="0.898998" fill="white"/>
<circle cx="42.4403" cy="128.191" r="0.899" fill="white"/>
</svg>
