<svg width="17" height="17" viewBox="0 0 17 17" fill="none" xmlns="http://www.w3.org/2000/svg">
<g clip-path="url(#clip0_679_37622)">
<path fill-rule="evenodd" clip-rule="evenodd" d="M7.34087 1.23271C7.64129 0.664943 8.44532 0.664941 8.74573 1.23271L16.2709 15.4552C16.5552 15.9926 16.1707 16.643 15.5685 16.643H0.518196C-0.0840303 16.643 -0.468619 15.9926 -0.184234 15.4552L7.34087 1.23271ZM8.0433 2.18325L0.961837 15.5672H15.1248L8.0433 2.18325Z" fill="black"/>
<path d="M8.84009 13.1926C8.84009 13.6382 8.48332 13.9994 8.04321 13.9994C7.60311 13.9994 7.24634 13.6382 7.24634 13.1926C7.24634 12.747 7.60311 12.3857 8.04321 12.3857C8.48332 12.3857 8.84009 12.747 8.84009 13.1926Z" fill="black"/>
<path fill-rule="evenodd" clip-rule="evenodd" d="M8.04321 5.88513C8.33661 5.88513 8.57446 6.12595 8.57446 6.42302V10.511C8.57446 10.808 8.33661 11.0489 8.04321 11.0489C7.74981 11.0489 7.51196 10.808 7.51196 10.511V6.42302C7.51196 6.12595 7.74981 5.88513 8.04321 5.88513Z" fill="black"/>
</g>
<defs>
<clipPath id="clip0_679_37622">
<rect width="17" height="17.2125" fill="white" transform="translate(-0.456787)"/>
</clipPath>
</defs>
</svg>
