<svg width="12" height="20" viewBox="0 0 12 20" fill="none" xmlns="http://www.w3.org/2000/svg">
<path fill-rule="evenodd" clip-rule="evenodd" d="M11.031 0.468998C11.1008 0.538667 11.1563 0.62143 11.1941 0.712548C11.2319 0.803665 11.2513 0.901347 11.2513 0.999998C11.2513 1.09865 11.2319 1.19633 11.1941 1.28745C11.1563 1.37857 11.1008 1.46133 11.031 1.531L2.5605 10L11.031 18.469C11.1718 18.6098 11.2509 18.8008 11.2509 19C11.2509 19.1992 11.1718 19.3902 11.031 19.531C10.8902 19.6718 10.6992 19.7509 10.5 19.7509C10.3008 19.7509 10.1098 19.6718 9.969 19.531L0.968997 10.531C0.899153 10.4613 0.843738 10.3786 0.805928 10.2874C0.768119 10.1963 0.748657 10.0986 0.748657 10C0.748657 9.90135 0.768119 9.80367 0.805928 9.71255C0.843738 9.62143 0.899153 9.53867 0.968997 9.469L9.969 0.468998C10.0387 0.399153 10.1214 0.343739 10.2125 0.305929C10.3037 0.26812 10.4013 0.248657 10.5 0.248657C10.5986 0.248657 10.6963 0.26812 10.7874 0.305929C10.8786 0.343739 10.9613 0.399153 11.031 0.468998Z" fill="black"/>
</svg>
