<svg width="15" height="18" viewBox="0 0 15 18" fill="none" xmlns="http://www.w3.org/2000/svg">
<path d="M9.97875 7.75001C10.7282 7.03628 11.1985 6.03126 11.1985 4.91703C11.1985 2.7572 9.44159 1.00008 7.28158 1.00008C5.12213 1.00008 3.36498 2.75741 3.36498 4.91703C3.36498 6.07066 3.86911 7.10608 4.66491 7.82336C4.66491 7.82336 4.95643 8.11096 5.42343 8.36391C5.97646 8.66346 6.60912 8.83396 7.28171 8.83396C7.97725 8.83396 8.62974 8.64961 9.19675 8.33025C12.2086 8.71714 13.3384 11.7578 13.3384 13.6101V16.1562L1.47344 16.156C1.27388 16.156 1.22112 16.3177 1.22112 16.5177C1.22112 16.7172 1.27387 16.8793 1.47344 16.8793H13.6993C13.8993 16.8793 14.061 16.7173 14.061 16.5177V13.61C14.0608 11.655 12.9321 8.53319 9.97875 7.75001ZM4.08751 4.91703C4.08751 3.15574 5.52057 1.7231 7.28116 1.7231C9.04245 1.7231 10.4754 3.15588 10.4754 4.91703C10.4754 6.6779 9.04231 8.11096 7.28116 8.11096C5.52057 8.11096 4.08751 6.6779 4.08751 4.91703Z" fill="#1B1F22"/>
<path d="M4.5822 7.74993C3.83272 7.0362 3.36243 6.03117 3.36243 4.91695C3.36243 2.75711 5.11937 1 7.27938 1C9.43883 1 11.196 2.75732 11.196 4.91695C11.196 6.07058 10.6919 7.106 9.89605 7.82327C9.89605 7.82327 9.60452 8.11088 9.13753 8.36383C8.5845 8.66337 7.95184 8.83388 7.27925 8.83388C6.5837 8.83388 5.93121 8.64953 5.36421 8.33017C2.35233 8.71706 1.2226 11.7578 1.2226 13.61V16.1561L13.0875 16.156C13.2871 16.156 13.3398 16.3176 13.3398 16.5176C13.3398 16.7171 13.2871 16.8792 13.0875 16.8792H0.861614C0.661646 16.8792 0.5 16.7173 0.5 16.5176V13.6099C0.500136 11.6549 1.62883 8.53311 4.5822 7.74993ZM10.4735 4.91695C10.4735 3.15566 9.04039 1.72302 7.2798 1.72302C5.51851 1.72302 4.08559 3.1558 4.08559 4.91695C4.08559 6.67782 5.51865 8.11088 7.2798 8.11088C9.04039 8.11088 10.4735 6.67782 10.4735 4.91695Z" fill="#1B1F22"/>
<path d="M9.97875 7.75001C10.7282 7.03628 11.1985 6.03126 11.1985 4.91703C11.1985 2.7572 9.44159 1.00008 7.28158 1.00008C5.12213 1.00008 3.36498 2.75741 3.36498 4.91703C3.36498 6.07066 3.86911 7.10608 4.66491 7.82336C4.66491 7.82336 4.95643 8.11096 5.42343 8.36391C5.97646 8.66346 6.60912 8.83396 7.28171 8.83396C7.97725 8.83396 8.62974 8.64961 9.19675 8.33025C12.2086 8.71714 13.3384 11.7578 13.3384 13.6101V16.1562L1.47344 16.156C1.27388 16.156 1.22112 16.3177 1.22112 16.5177C1.22112 16.7172 1.27387 16.8793 1.47344 16.8793H13.6993C13.8993 16.8793 14.061 16.7173 14.061 16.5177V13.61C14.0608 11.655 12.9321 8.53319 9.97875 7.75001ZM4.08751 4.91703C4.08751 3.15574 5.52057 1.7231 7.28116 1.7231C9.04245 1.7231 10.4754 3.15588 10.4754 4.91703C10.4754 6.6779 9.04231 8.11096 7.28116 8.11096C5.52057 8.11096 4.08751 6.6779 4.08751 4.91703Z" stroke="#1B1F22" stroke-width="0.5"/>
<path d="M4.5822 7.74993C3.83272 7.0362 3.36243 6.03117 3.36243 4.91695C3.36243 2.75711 5.11937 1 7.27938 1C9.43883 1 11.196 2.75732 11.196 4.91695C11.196 6.07058 10.6919 7.106 9.89605 7.82327C9.89605 7.82327 9.60452 8.11088 9.13753 8.36383C8.5845 8.66337 7.95184 8.83388 7.27925 8.83388C6.5837 8.83388 5.93121 8.64953 5.36421 8.33017C2.35233 8.71706 1.2226 11.7578 1.2226 13.61V16.1561L13.0875 16.156C13.2871 16.156 13.3398 16.3176 13.3398 16.5176C13.3398 16.7171 13.2871 16.8792 13.0875 16.8792H0.861614C0.661646 16.8792 0.5 16.7173 0.5 16.5176V13.6099C0.500136 11.6549 1.62883 8.53311 4.5822 7.74993ZM10.4735 4.91695C10.4735 3.15566 9.04039 1.72302 7.2798 1.72302C5.51851 1.72302 4.08559 3.1558 4.08559 4.91695C4.08559 6.67782 5.51865 8.11088 7.2798 8.11088C9.04039 8.11088 10.4735 6.67782 10.4735 4.91695Z" stroke="#1B1F22" stroke-width="0.5"/>
</svg>
