<svg width="78" height="60" viewBox="0 0 78 60" fill="none" xmlns="http://www.w3.org/2000/svg">
<path fill-rule="evenodd" clip-rule="evenodd" d="M7.65421 5.78971C7.90848 5.78971 7.99307 5.67676 7.99307 5.42215V4.97017C7.99307 4.40628 7.90848 3.98181 7.71112 3.67132C7.45668 3.30393 7.03324 3.16347 6.41123 3.16347H6.15765C5.64877 3.16347 5.22516 3.27642 4.97072 3.55837C4.68877 3.86885 4.54728 4.34937 4.54728 5.0833V5.78971H7.65421ZM7.48522 10.7046C8.38814 10.7046 9.77244 10.5062 10.478 10.337C10.6195 10.3085 10.8179 10.2515 11.0144 10.2515C11.2688 10.2515 11.4665 10.4499 11.5234 10.7321L11.7493 12.1451C11.8054 12.4268 11.8625 12.709 11.8625 12.9074C11.8625 13.2739 11.721 13.4725 11.1275 13.6688C9.99851 14.0649 8.24751 14.3467 6.86304 14.3467H6.32665C4.0953 14.3467 2.37284 13.8674 1.41284 12.9074C0.28298 11.7775 0 10.337 0 8.04874V6.46759C0 3.64295 0.734957 2.11802 1.69496 1.27098C2.62745 0.451434 4.0953 0.000488281 6.12911 0.000488281H6.52418C8.558 0.000488281 10.0271 0.564385 10.7893 1.41247C11.7779 2.51396 12.1444 4.03871 12.1444 6.46759V7.93665C12.1444 8.52926 11.891 8.72662 11.3259 8.72662H4.54728V8.95252C4.54728 10.2799 5.19679 10.7046 7.17353 10.7046H7.48522Z" fill="#1F201F"/>
<path fill-rule="evenodd" clip-rule="evenodd" d="M21.2001 0C22.8663 0 24.0524 0.395072 24.7862 1.1584C25.5488 1.94837 25.8318 2.99398 25.8318 4.88527V13.2744C25.8318 13.8108 25.6342 14.093 24.8709 14.093H22.2729C21.5106 14.093 21.313 13.8108 21.313 13.2744V5.28138C21.313 4.63186 21.2285 4.23593 21.0025 3.98235C20.7765 3.72791 20.3245 3.61478 19.7596 3.61478H19.5895C19.0256 3.61478 18.5737 3.72791 18.3476 3.98235C18.1217 4.23593 18.0373 4.60332 18.0373 5.28138V13.2744C18.0373 13.8108 17.8387 14.093 17.0762 14.093H14.4782C13.7159 14.093 13.5173 13.8108 13.5173 13.2744V1.04562C13.5173 0.479484 13.7434 0.254441 14.4782 0.254441H15.8058C16.4553 0.254441 16.6812 0.366533 16.8502 0.904126L17.0204 1.44052H17.1048C18.0087 0.479484 19.3076 0 20.974 0H21.2001Z" fill="#1F201F"/>
<path fill-rule="evenodd" clip-rule="evenodd" d="M34.8635 5.78971C35.118 5.78971 35.2025 5.67676 35.2025 5.42215V4.97017C35.2025 4.40628 35.118 3.98181 34.9194 3.67132C34.6661 3.30393 34.2415 3.16347 33.6216 3.16347H33.3671C32.8581 3.16347 32.4346 3.27642 32.1802 3.55837C31.8981 3.86885 31.7567 4.34937 31.7567 5.0833V5.78971H34.8635ZM34.6945 10.7046C35.5974 10.7046 36.9819 10.5062 37.6875 10.337C37.8288 10.3085 38.0263 10.2515 38.2249 10.2515C38.4783 10.2515 38.6758 10.4499 38.7327 10.7321L38.9586 12.1451C39.0157 12.4268 39.0719 12.709 39.0719 12.9074C39.0719 13.2739 38.9303 13.4725 38.3368 13.6688C37.208 14.0649 35.457 14.3467 34.0725 14.3467H33.5359C31.3046 14.3467 29.5821 13.8674 28.6223 12.9074C27.4923 11.7775 27.2095 10.337 27.2095 8.04874V6.46759C27.2095 3.64295 27.9443 2.11802 28.9043 1.27098C29.8368 0.451434 31.3046 0.000488281 33.3386 0.000488281H33.7335C35.7675 0.000488281 37.2365 0.564385 37.9988 1.41247C38.9872 2.51396 39.3537 4.03871 39.3537 6.46759V7.93665C39.3537 8.52926 39.1003 8.72662 38.5352 8.72662H31.7567V8.95252C31.7567 10.2799 32.4061 10.7046 34.384 10.7046H34.6945Z" fill="#1F201F"/>
<path fill-rule="evenodd" clip-rule="evenodd" d="M44.3648 1.77915C45.0426 0.677833 45.9741 0.254395 47.5276 0.254395H48.6576C49.2511 0.254395 49.477 0.395884 49.477 1.04523V3.10672C49.477 3.72769 49.2786 3.89755 48.7145 3.89755H47.8666C46.7936 3.89755 46.1158 4.09525 45.7207 4.49101C45.3531 4.85755 45.2403 5.50723 45.2403 6.43938V13.2742C45.2403 13.8106 45.0426 14.0926 44.2793 14.0926H41.6814C40.919 14.0926 40.7214 13.8106 40.7214 13.2742V1.04523C40.7214 0.480297 40.9473 0.254395 41.6814 0.254395H43.0374C43.6869 0.254395 43.9128 0.395884 44.0543 0.903735L44.2793 1.77915H44.3648Z" fill="#1F201F"/>
<path fill-rule="evenodd" clip-rule="evenodd" d="M56.8286 9.26368C57.4779 9.26368 57.931 9.09382 58.156 8.86878C58.4949 8.52975 58.6365 8.07777 58.6365 6.94774V5.84643C58.6365 4.7164 58.4949 4.26442 58.156 3.92539C57.931 3.69949 57.4779 3.5305 56.8286 3.5305H56.6311C55.9816 3.5305 55.5296 3.69949 55.3037 3.92539C54.9657 4.26442 54.8242 4.7164 54.8242 5.84643V6.94774C54.8242 8.07777 54.9657 8.52975 55.3037 8.86878C55.5296 9.09382 55.9816 9.26368 56.6311 9.26368H56.8286ZM71.4019 19.1482C71.1758 19.6002 70.9499 19.7417 70.6109 19.7417C70.3859 19.7417 70.1029 19.6573 69.7924 19.5158L68.3519 18.8938C67.843 18.6687 67.6181 18.4703 67.6181 18.1882C67.6181 18.0753 67.6456 17.9339 67.7586 17.7079C68.3519 16.522 69.143 14.997 69.3965 14.319C68.634 14.037 68.0974 13.5851 67.561 12.3979C66.6856 10.5065 65.5558 6.43886 64.8217 3.27605H63.9177C63.5228 3.27605 63.1838 3.33296 62.8721 3.44488C63.0139 4.03835 63.0983 4.63198 63.0983 5.45032V7.34282C63.0983 9.40517 62.6189 10.6757 61.4328 11.4665C62.8721 12.2291 63.8048 13.528 63.8048 14.997V15.1944C63.8048 17.7933 61.9123 19.3743 57.1676 19.3743H56.6311C54.8242 19.3743 52.5641 18.9223 51.0953 18.3574C50.5589 18.1597 50.3899 17.8206 50.5314 17.2842L51.0394 15.4775C51.1807 14.94 51.4343 14.7139 52.0563 14.9123C53.5241 15.393 55.3881 15.7308 56.4896 15.7308H56.8855C58.6365 15.7308 59.3419 15.1944 59.3419 14.2904V14.206C59.3419 13.6411 59.0885 13.1889 58.4949 12.737C58.156 12.7655 57.6196 12.794 57.1116 12.794H56.3491C52.4228 12.794 50.3613 11.1276 50.3613 7.34282V5.45032C50.3613 1.66671 52.1398 0.00012207 56.5465 0.00012207H56.9416C58.7495 0.00012207 60.1044 0.226197 61.0939 0.791125C61.7993 0.452099 62.6758 0.254735 63.7202 0.254735H67.7869C68.4081 0.254735 68.6625 0.366655 68.7755 0.931583C69.3404 3.98247 70.1875 7.71038 70.9785 10.3937H71.1198C72.0514 7.82333 72.9268 3.44488 73.3226 1.016C73.4073 0.42356 73.6618 0.254735 74.2257 0.254735H76.8246C77.4741 0.254735 77.6715 0.479606 77.5871 1.10161C76.8531 6.15691 74.6216 13.1616 71.4019 19.1482Z" fill="#1F201F"/>
<path fill-rule="evenodd" clip-rule="evenodd" d="M4.5285 37.1694C3.20111 37.1694 1.56323 36.8864 0.404837 36.4631C0.151256 36.3784 0.00976562 36.2939 0.00976562 36.068C0.00976562 35.8978 0.0656396 35.6719 0.178763 35.221L0.320081 34.7121C0.404837 34.4015 0.517789 34.317 0.687645 34.317C0.91372 34.317 1.11108 34.4585 1.70352 34.6277C2.52306 34.882 3.54014 35.0226 4.58455 35.0226C6.39246 35.0226 7.15475 34.4015 7.15475 33.0742V32.9336C7.15475 31.6337 6.53395 31.2386 5.14948 30.9557L3.82209 30.6737C0.941227 30.0519 0.235668 29.2048 0.235668 26.8614V26.663C0.235668 24.0366 1.7606 22.8221 4.98048 22.8221C6.39246 22.8221 7.63527 23.0195 8.56673 23.3027C8.84988 23.3871 8.90576 23.5 8.90576 23.6692C8.90576 23.8105 8.82134 24.0926 8.73693 24.4886L8.59527 25.025C8.51086 25.3354 8.45378 25.4211 8.25641 25.4211C8.11475 25.4211 7.88885 25.364 7.69131 25.3071C7.07034 25.1381 5.99756 24.9964 5.14948 24.9964C3.22948 24.9964 2.66455 25.4769 2.66455 26.663V26.8045C2.66455 27.7929 3.14404 28.1879 4.78295 28.5555L6.0818 28.8383C8.59527 29.3749 9.58363 30.3622 9.58363 32.8207V33.0457C9.58363 35.729 7.86134 37.1694 4.5285 37.1694Z" fill="#1F201F"/>
<path fill-rule="evenodd" clip-rule="evenodd" d="M16.0136 37.1694H15.138C12.2286 37.1694 10.9583 35.6436 10.9583 33.1026V32.6506C10.9583 31.1532 11.4102 29.9957 12.314 29.3178C13.1325 28.6684 14.3186 28.4138 16.6629 28.4138H17.3409C17.9059 28.4138 18.5552 28.4422 19.0643 28.4982V27.3123C19.0643 25.4769 18.1878 24.9964 16.2678 24.9964C15.364 24.9964 14.2909 25.1381 13.1896 25.4211C12.8506 25.5055 12.7091 25.533 12.5961 25.533C12.3988 25.533 12.2855 25.4211 12.2286 25.1381L12.1156 24.6015C12.0312 24.1781 12.0027 23.9805 12.0027 23.8676C12.0027 23.6692 12.1156 23.5286 12.3988 23.4441C13.4432 23.1041 15.0536 22.8221 16.4939 22.8221C20.0801 22.8221 21.6621 24.0366 21.6621 27.623V36.52C21.6621 36.802 21.5492 36.9149 21.2103 36.9149H20.1087C19.7698 36.9149 19.6282 36.802 19.5723 36.52L19.4593 35.7005H19.4023C18.8659 36.689 17.7644 37.1694 16.0136 37.1694ZM16.2955 30.5324C14.3186 30.5324 13.5845 31.0127 13.5845 32.6792V33.0742C13.5845 34.486 14.1211 35.0511 15.5614 35.0511H16.437C18.1603 35.0511 19.0643 34.43 19.0643 32.7352V30.6168C18.6123 30.5609 18.0474 30.5324 17.5383 30.5324H16.2955Z" fill="#1F201F"/>
<path fill-rule="evenodd" clip-rule="evenodd" d="M29.2128 36.9151H27.6879C27.0384 36.9151 26.7554 36.7177 26.4733 36.0111C25.0616 32.4809 23.7055 28.0751 22.7171 24.2343C22.6601 24.0084 22.5471 23.6133 22.5471 23.3872C22.5471 23.1613 22.6601 23.0769 22.9706 23.0769H24.5249C24.8914 23.0769 25.0616 23.1888 25.146 23.5562C26.05 27.171 27.0944 30.7299 28.3657 34.4303H28.5635C29.8338 30.7299 30.879 27.1151 31.7546 23.5562C31.839 23.1888 32.0092 23.0769 32.3756 23.0769H33.9291C34.2396 23.0769 34.3525 23.1613 34.3525 23.3872C34.3525 23.6133 34.2396 24.0084 34.1835 24.2343C33.1951 28.0751 31.839 32.4809 30.4272 36.0111C30.1453 36.7177 29.8621 36.9151 29.2128 36.9151Z" fill="#1F201F"/>
<path fill-rule="evenodd" clip-rule="evenodd" d="M39.7956 36.915H38.9759C36.7447 36.915 35.7287 36.124 35.7287 33.6678V23.5847C35.7287 23.1888 35.8977 23.0768 36.2938 23.0768H37.7616C38.1861 23.0768 38.3266 23.1888 38.3266 23.5847V33.6678C38.3266 34.5147 38.6381 34.7693 39.4006 34.7693H39.8515C40.2191 34.7693 40.3035 34.8537 40.3035 35.1925V36.4072C40.3035 36.7747 40.2191 36.915 39.7956 36.915ZM37.1121 21.2688H36.9717C36.0675 21.2688 35.3328 20.7882 35.3328 19.6309V19.4333C35.3328 18.2749 36.0675 17.7944 36.9717 17.7944H37.1121C38.0445 17.7944 38.7215 18.2749 38.7215 19.4333V19.6309C38.7215 20.7882 38.0445 21.2688 37.1121 21.2688Z" fill="#1F201F"/>
<path fill-rule="evenodd" clip-rule="evenodd" d="M52.1814 36.915H50.7125C50.3164 36.915 50.1476 36.8021 50.1476 36.4072V28.2725C50.1476 25.9007 49.3281 24.9408 47.1822 24.9408C45.3184 24.9408 44.274 25.6462 44.274 27.8776V36.4072C44.274 36.8021 44.1314 36.915 43.7078 36.915H42.2389C41.8439 36.915 41.675 36.8021 41.675 36.4072V23.5003C41.675 23.1613 41.8165 23.0769 42.127 23.0769H43.1154C43.4532 23.0769 43.5949 23.1613 43.652 23.5003L43.7933 24.4043H43.8493C44.6403 23.4434 45.9392 22.8223 47.859 22.8223C51.0801 22.8223 52.7465 24.3187 52.7465 28.3856V36.4072C52.7465 36.8021 52.605 36.915 52.1814 36.915Z" fill="#1F201F"/>
<path fill-rule="evenodd" clip-rule="evenodd" d="M60.1926 42.1969C58.2157 42.1969 56.0698 41.7735 54.6295 41.18C54.3178 41.0385 54.2048 40.9254 54.2048 40.728C54.2048 40.6151 54.2609 40.4451 54.3463 40.1346L54.6295 39.3161C54.6853 39.1177 54.8268 39.0616 54.9112 39.0616C55.0244 39.0616 55.1373 39.1177 55.3063 39.1746C56.6064 39.6826 58.4131 40.0785 59.9941 40.0785C62.0005 40.0785 63.2139 39.429 63.2139 37.5927V37.3667C63.2139 36.1247 62.6499 35.1363 61.4631 34.6273C60.9836 34.7129 60.4185 34.7688 59.7121 34.7688C55.7024 34.7688 54.1194 32.9607 54.1194 29.0916V28.5834C54.1194 24.3479 55.9557 22.8219 59.7121 22.8219C61.2939 22.8219 62.6499 23.0478 63.667 23.7259C64.1464 23.3024 64.7114 23.0763 65.5868 23.0763H66.5764C66.9429 23.0763 67.0557 23.1608 67.0557 23.5283V24.6582C67.0557 24.9972 66.9988 25.1102 66.6037 25.1102H65.8127C65.4463 25.1102 65.0777 25.1662 64.8243 25.2793C65.1633 26.1546 65.3048 27.1718 65.3048 28.5834V29.0916C65.3048 31.832 64.5699 33.1025 63.4969 33.6675C65.0777 34.5142 65.8412 35.9547 65.8412 37.5652V37.8755C65.8412 40.728 63.9205 42.1969 60.1926 42.1969ZM59.7121 24.8842C57.3962 24.8842 56.7752 25.9572 56.7752 28.4707V29.0916C56.7752 31.5489 57.3676 32.736 59.7121 32.736C62.0849 32.736 62.6499 31.5489 62.6499 29.064V28.4707C62.6499 25.9572 61.9436 24.8842 59.7121 24.8842Z" fill="#1F201F"/>
<path fill-rule="evenodd" clip-rule="evenodd" d="M7.4401 59.7441H6.11271C4.64365 59.7441 3.59924 59.3775 2.9499 58.6142C2.32893 57.8801 2.01741 56.8073 2.01741 55.3668V47.5153H0.294943C0.0963755 47.5153 0.0119629 47.4582 0.0119629 47.2046V46.6397C0.0119629 46.3852 0.0963755 46.3008 0.294943 46.2723L2.01741 45.9059V42.7144C2.01741 42.516 2.1589 42.3745 2.35643 42.3745H3.54234C3.74073 42.3745 3.85282 42.516 3.85282 42.7144V45.9059H7.15815C7.35569 45.9059 7.4401 45.9903 7.4401 46.1877V47.2333C7.4401 47.4023 7.35569 47.5153 7.15815 47.5153H3.85282V55.1409C3.85282 56.1578 3.93827 56.9476 4.36188 57.4567C4.72927 57.9372 5.37878 58.1622 6.4232 58.1622H7.4401C7.61013 58.1622 7.77913 58.1622 7.77913 58.4736V59.4336C7.77913 59.6311 7.69454 59.7441 7.4401 59.7441Z" fill="#1F201F"/>
<path fill-rule="evenodd" clip-rule="evenodd" d="M10.5106 59.7442H9.60669C9.26766 59.7442 9.15454 59.6312 9.15454 59.3776V46.2163C9.15454 46.0178 9.26766 45.906 9.49357 45.906H10.3131C10.5675 45.906 10.6236 46.0178 10.652 46.2163L10.7651 47.6843H10.8211C11.3302 46.7529 12.3461 45.906 14.0979 45.906H14.832C15.1138 45.906 15.1992 45.9904 15.1992 46.2449V47.2047C15.1992 47.4308 15.0863 47.5153 14.832 47.5153H14.0694C12.629 47.5153 11.951 47.9388 11.499 48.6737C11.1314 49.2662 10.9912 50.0286 10.9912 50.9041V59.3776C10.9912 59.6027 10.8497 59.7442 10.5106 59.7442Z" fill="#1F201F"/>
<path fill-rule="evenodd" clip-rule="evenodd" d="M21.3471 59.9979C19.8222 59.9979 18.6638 59.6589 17.8452 58.9821C16.9697 58.248 16.5737 57.174 16.5737 55.762V46.357C16.5737 46.1027 16.7438 45.906 16.9697 45.906H18.0141C18.2972 45.906 18.4102 46.1027 18.4102 46.3011V55.5361C18.4102 56.6661 18.6075 57.2584 19.1443 57.7389C19.7092 58.248 20.4715 58.4159 21.7991 58.4159C23.8043 58.4159 24.9333 57.6545 24.9333 55.649V46.2725C24.9333 46.0466 25.075 45.906 25.2724 45.906H26.4583C26.6854 45.906 26.7698 46.0466 26.7698 46.2725V59.434C26.7698 59.6314 26.6854 59.7443 26.4868 59.7443H25.6399C25.4138 59.7443 25.3294 59.6589 25.3009 59.434L25.1594 58.3886H25.1034C24.3694 59.4899 23.155 59.9979 21.3471 59.9979Z" fill="#1F201F"/>
<path fill-rule="evenodd" clip-rule="evenodd" d="M32.2142 59.998C30.7736 59.998 29.2487 59.6886 28.3733 59.321C28.0903 59.2081 27.9772 59.0951 28.0344 58.8407L28.2604 58.0222C28.3214 57.7982 28.4263 57.6912 28.5851 57.6912C28.6472 57.6912 28.7173 57.7076 28.7967 57.739C29.8982 58.1626 31.0283 58.416 32.2142 58.416C33.5701 58.416 34.1625 58.2195 34.6145 57.8521C35.0665 57.4846 35.3209 56.8913 35.3209 56.0442V55.8752C35.3209 54.8869 35.1509 54.3503 34.5586 53.9829C34.134 53.7283 33.513 53.5868 32.5807 53.3895L31.7907 53.2488C30.8581 53.0798 30.1243 52.8527 29.5879 52.5424C28.5423 51.9489 28.1474 50.9329 28.1474 49.6055V49.3225C28.1474 46.809 29.7007 45.6519 32.6661 45.6519C33.8804 45.6519 34.925 45.7932 35.8289 46.0468C36.168 46.1313 36.3093 46.3012 36.2524 46.5548L36.0834 47.2896C36.0184 47.5514 35.9022 47.6948 35.6711 47.6948C35.6018 47.6948 35.5236 47.6826 35.434 47.6561C34.6145 47.4311 33.5416 47.2337 32.6376 47.2337C31.4232 47.2337 30.7736 47.4586 30.4063 47.7976C30.0958 48.0807 29.8412 48.6171 29.8412 49.2665V49.4642C29.8412 50.0576 29.9541 50.5086 30.2931 50.8485C30.6607 51.2148 31.1687 51.4411 32.4961 51.6954L33.2311 51.8368C34.6145 52.119 35.7444 52.4855 36.3093 53.1919C36.7329 53.7568 37.0149 54.5764 37.0149 55.6777V55.9598C37.0149 56.9482 36.7329 57.9651 36.2249 58.5871C35.4616 59.5471 34.134 59.998 32.2142 59.998Z" fill="#1F201F"/>
<path fill-rule="evenodd" clip-rule="evenodd" d="M44.8197 59.7441H43.4921C42.0241 59.7441 40.9788 59.3775 40.3293 58.6142C39.7073 57.8801 39.3968 56.8073 39.3968 55.3668V47.5153H37.6743C37.477 47.5153 37.3914 47.4582 37.3914 47.2046V46.6397C37.3914 46.3852 37.477 46.3008 37.6743 46.2723L39.3968 45.9059V42.7144C39.3968 42.516 39.5383 42.3745 39.7369 42.3745H40.9217C41.1193 42.3745 41.2332 42.516 41.2332 42.7144V45.9059H44.5367C44.7351 45.9059 44.8197 45.9903 44.8197 46.1877V47.2333C44.8197 47.4023 44.7351 47.5153 44.5367 47.5153H41.2332V55.1409C41.2332 56.1578 41.3178 56.9476 41.7413 57.4567C42.1087 57.9372 42.7582 58.1622 43.8026 58.1622H44.8197C44.9895 58.1622 45.1585 58.1622 45.1585 58.4736V59.4336C45.1585 59.6311 45.0739 59.7441 44.8197 59.7441Z" fill="#1F201F"/>
</svg>
