<svg width="58" height="58" viewBox="0 0 58 58" fill="black" xmlns="http://www.w3.org/2000/svg">
<rect width="58" height="58" fill="#ffffff"/>
<ellipse cx="8.84505" cy="23.6348" rx="0.899" ry="0.898999" fill="black"/>
<circle cx="20.619" cy="23.6929" r="0.899" fill="black"/>
<ellipse cx="18.647" cy="25.607" rx="0.899" ry="0.898999" fill="black"/>
<ellipse cx="16.6751" cy="27.5208" rx="0.899" ry="0.899" fill="black"/>
<circle cx="14.7611" cy="29.4349" r="0.899" fill="black"/>
<ellipse cx="12.847" cy="27.5208" rx="0.899" ry="0.899" fill="black"/>
<ellipse cx="10.8751" cy="25.607" rx="0.899" ry="0.898999" fill="black"/>
<ellipse cx="8.84505" cy="28.159" rx="0.899" ry="0.898999" fill="black"/>
<ellipse cx="20.619" cy="28.159" rx="0.899" ry="0.898999" fill="black"/>
<ellipse cx="8.84505" cy="32.6829" rx="0.899" ry="0.899001" fill="black"/>
<ellipse cx="20.619" cy="32.6829" rx="0.899" ry="0.899001" fill="black"/>
<ellipse cx="8.84505" cy="25.897" rx="0.899" ry="0.899" fill="black"/>
<circle cx="20.619" cy="25.9549" r="0.899" fill="black"/>
<ellipse cx="8.84505" cy="30.421" rx="0.899" ry="0.899" fill="black"/>
<circle cx="20.619" cy="30.421" r="0.899" fill="black"/>
<ellipse cx="8.84505" cy="34.9449" rx="0.899" ry="0.898998" fill="black"/>
<ellipse cx="20.619" cy="34.9449" rx="0.899" ry="0.898998" fill="black"/>
<ellipse cx="35.8731" cy="32.045" rx="0.898998" ry="0.899" fill="black"/>
<circle cx="34.9451" cy="34.191" r="0.899" fill="black"/>
<ellipse cx="32.6829" cy="34.9449" rx="0.899" ry="0.898998" fill="black"/>
<ellipse cx="30.2471" cy="34.9449" rx="0.898999" ry="0.898998" fill="black"/>
<circle cx="27.9271" cy="34.597" r="0.899" fill="black"/>
<ellipse cx="26.419" cy="32.741" rx="0.898999" ry="0.899" fill="black"/>
<circle cx="26.3612" cy="30.3629" r="0.899" fill="black"/>
<circle cx="26.3612" cy="27.9268" r="0.899" fill="black"/>
<circle cx="26.4771" cy="25.491" r="0.899" fill="black"/>
<ellipse cx="27.9271" cy="23.6348" rx="0.899" ry="0.898999" fill="black"/>
<circle cx="30.305" cy="23.2869" r="0.899" fill="black"/>
<circle cx="32.741" cy="23.2869" r="0.899" fill="black"/>
<circle cx="34.9451" cy="24.099" r="0.899" fill="black"/>
<circle cx="35.931" cy="26.2449" r="0.899" fill="black"/>
<circle cx="49.213" cy="24.099" r="0.899" fill="black"/>
<circle cx="47.0091" cy="23.345" r="0.899" fill="black"/>
<circle cx="44.5731" cy="23.345" r="0.899" fill="black"/>
<circle cx="42.253" cy="23.577" r="0.899" fill="black"/>
<circle cx="40.7449" cy="25.3748" r="0.899" fill="black"/>
<circle cx="41.035" cy="27.6949" r="0.899" fill="black"/>
<circle cx="42.9491" cy="29.0289" r="0.899" fill="black"/>
<circle cx="45.327" cy="29.1448" r="0.899" fill="black"/>
<circle cx="47.763" cy="29.1448" r="0.899" fill="black"/>
<circle cx="49.6771" cy="30.4788" r="0.899" fill="black"/>
<ellipse cx="50.025" cy="32.7989" rx="0.899" ry="0.898999" fill="black"/>
<circle cx="48.5172" cy="34.597" r="0.899" fill="black"/>
<ellipse cx="46.139" cy="34.9449" rx="0.899" ry="0.898998" fill="black"/>
<ellipse cx="43.703" cy="34.9449" rx="0.899" ry="0.898998" fill="black"/>
<circle cx="41.4991" cy="34.191" r="0.899" fill="black"/>
</svg>
