<svg width="17" height="18" viewBox="0 0 17 18" fill="none" xmlns="http://www.w3.org/2000/svg">
<path d="M12.4764 11.4881C13.5051 10.0843 13.9659 8.34376 13.7665 6.61477C13.5671 4.88579 12.7222 3.29585 11.4009 2.16304C10.0796 1.03024 8.37925 0.438113 6.64009 0.505125C4.90094 0.572138 3.25122 1.29335 2.02098 2.52447C0.790735 3.75559 0.070705 5.40583 0.00493676 7.14503C-0.0608315 8.88423 0.532513 10.5841 1.66626 11.9047C2.80001 13.2252 4.39055 14.0689 6.11968 14.2671C7.84881 14.4652 9.589 14.0032 10.9921 12.9734H10.991C11.0229 13.0159 11.0569 13.0563 11.0952 13.0956L15.1856 17.1861C15.3849 17.3855 15.6551 17.4975 15.9369 17.4976C16.2188 17.4977 16.4891 17.3858 16.6885 17.1866C16.8878 16.9874 16.9999 16.7171 17 16.4353C17.0001 16.1535 16.8882 15.8831 16.689 15.6838L12.5985 11.5933C12.5606 11.5549 12.5197 11.5204 12.4764 11.4881ZM12.7505 7.40402C12.7505 8.17141 12.5993 8.93127 12.3057 9.64024C12.012 10.3492 11.5816 10.9934 11.0389 11.536C10.4963 12.0786 9.85214 12.5091 9.14317 12.8027C8.4342 13.0964 7.67433 13.2476 6.90694 13.2476C6.13956 13.2476 5.37969 13.0964 4.67072 12.8027C3.96175 12.5091 3.31757 12.0786 2.77494 11.536C2.23232 10.9934 1.80189 10.3492 1.50823 9.64024C1.21456 8.93127 1.06341 8.17141 1.06341 7.40402C1.06341 5.85422 1.67907 4.3679 2.77494 3.27202C3.87082 2.17615 5.35714 1.56049 6.90694 1.56049C8.45675 1.56049 9.94307 2.17615 11.0389 3.27202C12.1348 4.3679 12.7505 5.85422 12.7505 7.40402Z" fill="#1B1F22"/>
</svg>
